# xmcd CD database file
#
# Track frame offsets:
#	150
#	14874
#	34662
#	48049
#	61841
#	75720
#	92540
#	106355
#	115114
#	127203
#	140836
#	154429
#	165550
#	175051
#	188627
#
# Disc length: 2659 seconds
#
# Revision: 0
# Processed by: cddbd v1.5.2PL0 Copyright (c) Steve Scherf et al.
# Submitted via: CDex 1.51
#
DISCID=c70a610f
DTITLE=Ella Fitgerald - What a wonderful duet - 2
DYEAR=1900
DGENRE=Jazz
TTITLE0=Looking for a boy
TTITLE1=Moanin' low
TTITLE2=My happiness
TTITLE3=My heart belongs to daddy
TTITLE4=Stairway to the stars
TTITLE5=Someone to watch over me
TTITLE6=Taking a chance of love
TTITLE7=Lover come back to me
TTITLE8=My last affair
TTITLE9=The starlit hour
TTITLE10=My man
TTITLE11=That black old magic
TTITLE12=Undecided
TTITLE13=Basin Street blues
TTITLE14=Flying home
EXTD=
EXTT0=
EXTT1=
EXTT2=
EXTT3=
EXTT4=
EXTT5=
EXTT6=
EXTT7=
EXTT8=
EXTT9=
EXTT10=
EXTT11=
EXTT12=
EXTT13=
EXTT14=
PLAYORDER=
